<?xml version="1.0" standalone="no"?>
<!DOCTYPE svg PUBLIC "-//W3C//DTD SVG 20010904//EN"
 "http://www.w3.org/TR/2001/REC-SVG-20010904/DTD/svg10.dtd">
<svg version="1.0" xmlns="http://www.w3.org/2000/svg"
 width="512.000000pt" height="512.000000pt" viewBox="0 0 512.000000 512.000000"
 preserveAspectRatio="xMidYMid meet">

<g transform="translate(0.000000,512.000000) scale(0.100000,-0.100000)"
fill="#f75d83" stroke="none">
<path 
d="M1040 5101 c-173 -46 -304 -176 -354 -351 -15 -50 -16 -268 -14
-2290 l3 -2235 24 -49 c31 -63 84 -115 146 -146 68 -32 189 -34 255 -3 26 12
341 271 750 617 388 327 707 595 710 595 3 0 322 -267 709 -594 387 -327 724
-604 750 -617 34 -16 64 -22 116 -23 131 0 250 81 295 202 20 53 20 75 20
2272 0 2187 0 2220 -20 2282 -54 175 -186 300 -361 343 -59 14 -213 16 -1515
15 -1353 0 -1453 -1 -1514 -18z"/>
</g>
</svg>
